<?xml version="1.0" standalone="no"?>
<!DOCTYPE svg PUBLIC "-//W3C//DTD SVG 20010904//EN"
 "http://www.w3.org/TR/2001/REC-SVG-20010904/DTD/svg10.dtd">
<svg version="1.0" xmlns="http://www.w3.org/2000/svg"
 width="892.000000pt" height="740.000000pt" viewBox="0 0 892.000000 740.000000"
 preserveAspectRatio="xMidYMid meet">

<g transform="translate(0.000000,740.000000) scale(0.100000,-0.100000)"
fill="#ffd900" stroke="none">
<path d="M6860 6351 c-41 -13 -84 -38 -107 -63 -31 -33 -63 -107 -63 -149 0
-35 -1 -36 -46 -43 -121 -16 -256 -124 -317 -253 -30 -64 -32 -75 -32 -178 0
-106 1 -113 36 -186 30 -62 54 -93 127 -164 50 -49 108 -98 129 -109 34 -19
38 -26 41 -66 7 -88 -54 -180 -119 -180 -29 0 -97 -24 -167 -58 -19 -9 -45
-29 -59 -46 -14 -16 -169 -318 -345 -670 -176 -353 -358 -709 -404 -792 -72
-129 -84 -158 -84 -198 0 -39 6 -52 33 -82 28 -31 41 -37 83 -41 60 -5 107 20
129 69 8 18 26 104 39 191 l25 159 99 156 c205 325 247 391 249 388 1 -1 -13
-63 -32 -137 -84 -337 -140 -757 -164 -1234 -16 -316 -24 -762 -16 -883 l7
-111 64 -6 64 -7 0 -183 0 -182 -109 -114 c-152 -160 -188 -204 -196 -238 -8
-38 16 -94 49 -116 51 -33 91 -23 256 70 160 89 210 129 210 168 0 12 -7 70
-17 128 l-16 105 28 177 27 177 27 0 27 0 93 703 c51 386 96 712 99 725 6 17
71 -160 257 -697 153 -442 255 -721 263 -721 10 0 204 60 250 77 8 4 45 -62
108 -191 l95 -197 -27 -183 c-15 -100 -24 -194 -21 -208 18 -71 104 -120 171
-98 121 40 150 244 64 459 -16 42 -35 82 -41 90 -22 27 -127 395 -115 402 8 5
-37 170 -149 541 l-160 533 28 17 c54 33 59 51 59 201 0 77 14 459 31 851 16
391 29 750 27 798 -3 77 -6 91 -33 129 -38 54 -99 86 -230 119 -91 23 -101 28
-127 64 -23 33 -68 148 -68 176 0 4 24 21 53 38 61 35 146 121 176 180 30 59
51 147 51 213 0 64 -29 166 -61 219 -15 24 -18 35 -9 38 47 16 111 103 123
170 8 39 -8 122 -28 148 -13 17 -13 15 -4 -14 25 -75 -15 -195 -82 -243 l-31
-22 28 42 c36 55 44 141 19 206 -38 100 -166 166 -265 136z m251 -2379 l36
-607 -23 -65 c-13 -40 -24 -59 -28 -50 -21 52 -89 298 -103 374 -27 141 -24
480 5 650 28 164 64 318 71 310 3 -3 22 -279 42 -612z"/>
<path d="M4125 5639 c-403 -55 -755 -302 -938 -657 -206 -398 -180 -875 68
-1247 183 -276 484 -473 809 -530 112 -19 318 -19 427 0 100 17 215 53 313 98
l71 33 55 -33 c119 -72 247 -103 351 -84 34 6 66 14 71 19 4 4 -46 68 -111
142 l-119 134 70 79 c198 224 301 479 315 777 27 584 -379 1115 -954 1245
-124 29 -318 39 -428 24z m591 -914 c19 -29 12 -70 -14 -84 -9 -5 -253 -12
-547 -17 -494 -6 -532 -6 -548 10 -22 23 -22 69 1 89 19 18 59 19 794 25 l298
2 16 -25z m292 -251 c25 -18 29 -60 8 -90 -14 -18 -37 -19 -702 -26 -632 -7
-689 -7 -706 9 -22 20 -23 66 -2 87 18 19 -32 17 674 25 300 4 581 8 625 9 59
1 86 -2 103 -14z m4 -271 c23 -21 23 -65 -1 -87 -18 -16 -75 -18 -693 -25
-478 -5 -680 -4 -698 3 -19 8 -26 20 -28 47 -5 65 -16 63 457 69 935 12 943
12 963 -7z"/>
</g>
</svg>
